<svg xmlns="http://www.w3.org/2000/svg" viewBox="0 0 1440 900" font-family="Inter, -apple-system, sans-serif">
  <defs>
    <linearGradient id="bg" x1="0" y1="0" x2="0" y2="1">
      <stop offset="0%" stop-color="#0f1117"/>
      <stop offset="100%" stop-color="#0a0b10"/>
    </linearGradient>
    <linearGradient id="sidebar-bg" x1="0" y1="0" x2="0" y2="1">
      <stop offset="0%" stop-color="#12131a"/>
      <stop offset="100%" stop-color="#0e0f16"/>
    </linearGradient>
    <linearGradient id="card-border" x1="0" y1="0" x2="1" y2="1">
      <stop offset="0%" stop-color="#1e1f2e" stop-opacity="0.8"/>
      <stop offset="100%" stop-color="#16171f" stop-opacity="0.4"/>
    </linearGradient>
    <linearGradient id="accent-grad" x1="0" y1="0" x2="1" y2="0">
      <stop offset="0%" stop-color="#6366f1"/>
      <stop offset="100%" stop-color="#8b5cf6"/>
    </linearGradient>
    <linearGradient id="green-grad" x1="0" y1="0" x2="1" y2="0">
      <stop offset="0%" stop-color="#10b981"/>
      <stop offset="100%" stop-color="#34d399"/>
    </linearGradient>
    <linearGradient id="red-grad" x1="0" y1="0" x2="1" y2="0">
      <stop offset="0%" stop-color="#ef4444"/>
      <stop offset="100%" stop-color="#f87171"/>
    </linearGradient>
    <filter id="shadow-sm">
      <feDropShadow dx="0" dy="2" stdDeviation="4" flood-color="#000" flood-opacity="0.2"/>
    </filter>
    <filter id="shadow-md">
      <feDropShadow dx="0" dy="4" stdDeviation="8" flood-color="#000" flood-opacity="0.25"/>
    </filter>
  </defs>

  <!-- Background -->
  <rect width="1440" height="900" fill="url(#bg)"/>

  <!-- ===== SIDEBAR ===== -->
  <rect x="0" y="0" width="240" height="900" fill="url(#sidebar-bg)"/>
  <line x1="240" y1="0" x2="240" y2="900" stroke="#1e1f2e" stroke-width="1"/>

  <!-- Logo -->
  <text x="28" y="42" font-size="20">🛡️</text>
  <text x="52" y="42" fill="#f1f5f9" font-size="16" font-weight="800" font-family="Space Grotesk, Inter, sans-serif">CodeGuard</text>
  <text x="160" y="42" fill="#6366f1" font-size="9" font-weight="600">v1.0</text>

  <line x1="20" y1="60" x2="220" y2="60" stroke="#1e1f2e" stroke-width="1"/>

  <!-- Nav items -->
  <rect x="12" y="75" width="216" height="36" rx="8" fill="#6366f1" fill-opacity="0.1"/>
  <rect x="12" y="75" width="3" height="36" rx="2" fill="#6366f1"/>
  <text x="44" y="98" fill="#6366f1" font-size="13" font-weight="600">Dashboard</text>
  <text x="24" y="98" font-size="14">📊</text>

  <text x="24" y="138" font-size="14">🔍</text>
  <text x="44" y="138" fill="#64748b" font-size="13" font-weight="500">PR Reviews</text>

  <text x="24" y="172" font-size="14">📚</text>
  <text x="44" y="172" fill="#64748b" font-size="13" font-weight="500">Guidelines</text>

  <text x="24" y="206" font-size="14">🌳</text>
  <text x="44" y="206" fill="#64748b" font-size="13" font-weight="500">Architecture</text>

  <text x="24" y="240" font-size="14">📡</text>
  <text x="44" y="240" fill="#64748b" font-size="13" font-weight="500">Signal Analysis</text>

  <text x="24" y="274" font-size="14">👤</text>
  <text x="44" y="274" fill="#64748b" font-size="13" font-weight="500">Intern View</text>

  <line x1="20" y1="295" x2="220" y2="295" stroke="#1e1f2e" stroke-width="1"/>

  <text x="24" y="325" fill="#3f4050" font-size="10" font-weight="600" letter-spacing="1.5">COLLECTIONS</text>

  <circle cx="32" cy="350" r="6" fill="#10b981" fill-opacity="0.2" stroke="#10b981" stroke-width="1.5"/>
  <text x="48" y="354" fill="#94a3b8" font-size="12">Positive Patterns</text>
  <text x="200" y="354" fill="#10b981" font-size="11" font-weight="600" text-anchor="end">247</text>

  <circle cx="32" cy="380" r="6" fill="#ef4444" fill-opacity="0.2" stroke="#ef4444" stroke-width="1.5"/>
  <text x="48" y="384" fill="#94a3b8" font-size="12">Negative Patterns</text>
  <text x="200" y="384" fill="#ef4444" font-size="11" font-weight="600" text-anchor="end">89</text>

  <line x1="20" y1="410" x2="220" y2="410" stroke="#1e1f2e" stroke-width="1"/>

  <!-- Mode indicator -->
  <text x="24" y="440" fill="#3f4050" font-size="10" font-weight="600" letter-spacing="1.5">MODE</text>
  <rect x="12" y="455" width="216" height="32" rx="8" fill="#10b981" fill-opacity="0.06" stroke="#10b981" stroke-opacity="0.2" stroke-width="1"/>
  <circle cx="32" cy="471" r="4" fill="#10b981"/>
  <text x="44" y="475" fill="#10b981" font-size="11" font-weight="600">Auto Mode Active</text>

  <!-- Bottom user -->
  <rect x="12" y="850" width="216" height="38" rx="8" fill="#16171f"/>
  <circle cx="34" cy="869" r="12" fill="#6366f1" fill-opacity="0.2" stroke="#6366f1" stroke-width="1"/>
  <text x="34" y="873" text-anchor="middle" fill="#a78bfa" font-size="10" font-weight="700">BM</text>
  <text x="56" y="865" fill="#f1f5f9" font-size="11" font-weight="600">Bhavika M.</text>
  <text x="56" y="879" fill="#64748b" font-size="9">Project Context Lead</text>

  <!-- ===== MAIN CONTENT ===== -->
  <!-- Header bar -->
  <rect x="240" y="0" width="1200" height="56" fill="#12131a"/>
  <line x1="240" y1="56" x2="1440" y2="56" stroke="#1e1f2e" stroke-width="1"/>
  <text x="272" y="35" fill="#f1f5f9" font-size="16" font-weight="700">Dashboard</text>
  <text x="380" y="35" fill="#64748b" font-size="12">|  Last updated 2 min ago</text>

  <!-- Search bar -->
  <rect x="900" y="14" width="260" height="30" rx="8" fill="#16171f" stroke="#1e1f2e" stroke-width="1"/>
  <text x="920" y="34" fill="#3f4050" font-size="11">Search guidelines, PRs...</text>

  <!-- Notification bell -->
  <circle cx="1200" cy="28" r="14" fill="#16171f" stroke="#1e1f2e" stroke-width="1"/>
  <text x="1200" y="33" text-anchor="middle" font-size="12">🔔</text>
  <circle cx="1208" cy="20" r="5" fill="#ef4444"/>
  <text x="1208" y="23" text-anchor="middle" fill="white" font-size="7" font-weight="700">3</text>

  <!-- ===== STAT CARDS ROW ===== -->
  <!-- Card 1: PRs Reviewed -->
  <g filter="url(#shadow-sm)">
    <rect x="272" y="76" width="220" height="100" rx="12" fill="#16171f" stroke="#1e1f2e" stroke-width="1"/>
    <text x="292" y="104" fill="#64748b" font-size="11" font-weight="500">PRs Reviewed Today</text>
    <text x="292" y="140" fill="#f1f5f9" font-size="32" font-weight="800">12</text>
    <rect x="350" y="124" width="55" height="20" rx="5" fill="#10b981" fill-opacity="0.1"/>
    <text x="377" y="138" text-anchor="middle" fill="#10b981" font-size="9" font-weight="600">+33%</text>
    <text x="470" y="160" text-anchor="end" font-size="22">📋</text>
  </g>

  <!-- Card 2: Violations Caught -->
  <g filter="url(#shadow-sm)">
    <rect x="508" y="76" width="220" height="100" rx="12" fill="#16171f" stroke="#1e1f2e" stroke-width="1"/>
    <text x="528" y="104" fill="#64748b" font-size="11" font-weight="500">Violations Caught</text>
    <text x="528" y="140" fill="#f1f5f9" font-size="32" font-weight="800">7</text>
    <rect x="570" y="124" width="80" height="20" rx="5" fill="#f59e0b" fill-opacity="0.1"/>
    <text x="610" y="138" text-anchor="middle" fill="#f59e0b" font-size="9" font-weight="600">3 critical</text>
    <text x="706" y="160" text-anchor="end" font-size="22">⚠️</text>
  </g>

  <!-- Card 3: New Guidelines -->
  <g filter="url(#shadow-sm)">
    <rect x="744" y="76" width="220" height="100" rx="12" fill="#16171f" stroke="#1e1f2e" stroke-width="1"/>
    <text x="764" y="104" fill="#64748b" font-size="11" font-weight="500">New Guidelines Learned</text>
    <text x="764" y="140" fill="#f1f5f9" font-size="32" font-weight="800">4</text>
    <rect x="810" y="124" width="70" height="20" rx="5" fill="#6366f1" fill-opacity="0.1"/>
    <text x="845" y="138" text-anchor="middle" fill="#a78bfa" font-size="9" font-weight="600">2 pos / 2 neg</text>
    <text x="942" y="160" text-anchor="end" font-size="22">📚</text>
  </g>

  <!-- Card 4: Knowledge Score -->
  <g filter="url(#shadow-sm)">
    <rect x="980" y="76" width="220" height="100" rx="12" fill="#16171f" stroke="#1e1f2e" stroke-width="1"/>
    <text x="1000" y="104" fill="#64748b" font-size="11" font-weight="500">Knowledge Coverage</text>
    <text x="1000" y="140" fill="#f1f5f9" font-size="32" font-weight="800">73%</text>
    <rect x="1065" y="124" width="50" height="20" rx="5" fill="#10b981" fill-opacity="0.1"/>
    <text x="1090" y="138" text-anchor="middle" fill="#10b981" font-size="9" font-weight="600">+8%</text>
    <text x="1178" y="160" text-anchor="end" font-size="22">🧠</text>
  </g>

  <!-- ===== ACTIVE PR REVIEW PANEL ===== -->
  <g filter="url(#shadow-md)">
    <rect x="272" y="196" width="700" height="420" rx="14" fill="#16171f" stroke="#1e1f2e" stroke-width="1"/>
    
    <!-- Panel header -->
    <text x="296" y="228" fill="#f1f5f9" font-size="14" font-weight="700">Active PR Review</text>
    <rect x="420" y="214" width="55" height="20" rx="5" fill="#f59e0b" fill-opacity="0.1" stroke="#f59e0b" stroke-opacity="0.3" stroke-width="1"/>
    <text x="447" y="228" text-anchor="middle" fill="#f59e0b" font-size="9" font-weight="600">LIVE</text>

    <!-- PR info bar -->
    <rect x="290" y="244" width="660" height="42" rx="8" fill="#0f1117"/>
    <text x="308" y="268" fill="#a78bfa" font-size="12" font-weight="600" font-family="JetBrains Mono, monospace">#347</text>
    <text x="348" y="268" fill="#f1f5f9" font-size="12" font-weight="600">fix: move payment logic from route to service layer</text>
    <rect x="740" y="254" width="65" height="22" rx="6" fill="#f59e0b" fill-opacity="0.1"/>
    <text x="772" y="269" text-anchor="middle" fill="#f59e0b" font-size="9" font-weight="600">2 issues</text>
    <rect x="815" y="254" width="50" height="22" rx="6" fill="#6366f1" fill-opacity="0.1"/>
    <text x="840" y="269" text-anchor="middle" fill="#a78bfa" font-size="9" font-weight="600">Python</text>
    <rect x="875" y="254" width="55" height="22" rx="6" fill="#10b981" fill-opacity="0.1"/>
    <text x="902" y="269" text-anchor="middle" fill="#10b981" font-size="9" font-weight="600">intern-1</text>

    <!-- Violation 1 -->
    <rect x="290" y="300" width="660" height="100" rx="10" fill="#ef4444" fill-opacity="0.03" stroke="#ef4444" stroke-opacity="0.15" stroke-width="1"/>
    <circle cx="312" cy="322" r="10" fill="#ef4444" fill-opacity="0.1" stroke="#ef4444" stroke-width="1.5"/>
    <text x="312" y="327" text-anchor="middle" fill="#ef4444" font-size="10" font-weight="700">!</text>
    <text x="332" y="326" fill="#f1f5f9" font-size="12" font-weight="600">Broad exception handling in payment route</text>
    <text x="308" y="350" fill="#94a3b8" font-size="10">Guideline: "Avoid broad exception handling in route files. Use specific exception</text>
    <text x="308" y="366" fill="#94a3b8" font-size="10">types so failures are visible to new contributors."</text>
    <text x="308" y="386" fill="#64748b" font-size="9">Source: commit abc1234 by senior-dev | Confidence: high | Collection: negative</text>
    
    <!-- Dismiss button -->
    <rect x="850" y="310" width="80" height="26" rx="6" fill="#1e1f2e" stroke="#2e2f3e" stroke-width="1"/>
    <text x="890" y="327" text-anchor="middle" fill="#94a3b8" font-size="9" font-weight="600">Dismiss</text>

    <!-- Violation 2 -->
    <rect x="290" y="412" width="660" height="100" rx="10" fill="#f59e0b" fill-opacity="0.03" stroke="#f59e0b" stroke-opacity="0.15" stroke-width="1"/>
    <circle cx="312" cy="434" r="10" fill="#f59e0b" fill-opacity="0.1" stroke="#f59e0b" stroke-width="1.5"/>
    <text x="312" y="439" text-anchor="middle" fill="#f59e0b" font-size="10" font-weight="700">⚡</text>
    <text x="332" y="438" fill="#f1f5f9" font-size="12" font-weight="600">Business logic detected in route handler</text>
    <text x="308" y="462" fill="#94a3b8" font-size="10">Guideline: "Keep business logic in clear, reusable modules instead of scattering</text>
    <text x="308" y="478" fill="#94a3b8" font-size="10">it across route handlers. A new intern should trace logic from input to output."</text>
    <text x="308" y="498" fill="#64748b" font-size="9">Source: commit def5678 by tech-lead | Confidence: high | Collection: negative</text>

    <rect x="850" y="422" width="80" height="26" rx="6" fill="#1e1f2e" stroke="#2e2f3e" stroke-width="1"/>
    <text x="890" y="439" text-anchor="middle" fill="#94a3b8" font-size="9" font-weight="600">Dismiss</text>

    <!-- Code snippet preview -->
    <rect x="290" y="524" width="660" height="78" rx="10" fill="#0a0b10" stroke="#1e1f2e" stroke-width="1"/>
    <text x="308" y="546" fill="#64748b" font-size="9" font-family="JetBrains Mono, monospace">routes/payment.py:45</text>
    <text x="308" y="564" fill="#ef4444" font-size="10" font-family="JetBrains Mono, monospace">- except:</text>
    <text x="308" y="580" fill="#10b981" font-size="10" font-family="JetBrains Mono, monospace">+ except PaymentError as e:</text>
    <text x="308" y="594" fill="#10b981" font-size="10" font-family="JetBrains Mono, monospace">+     logger.error(f"Payment failed: {e}")</text>
  </g>

  <!-- ===== RIGHT PANEL: Similar Functions ===== -->
  <g filter="url(#shadow-md)">
    <rect x="990" y="196" width="420" height="200" rx="14" fill="#16171f" stroke="#1e1f2e" stroke-width="1"/>
    <text x="1014" y="228" fill="#f1f5f9" font-size="14" font-weight="700">Similar Functions Found</text>
    <text x="1350" y="228" text-anchor="end" fill="#64748b" font-size="10">k=5 neighbors</text>

    <!-- Function matches -->
    <rect x="1008" y="244" width="384" height="36" rx="8" fill="#0f1117"/>
    <text x="1024" y="267" fill="#00d4ff" font-size="10" font-family="JetBrains Mono, monospace">services/billing.py::process_refund</text>
    <rect x="1300" y="252" width="70" height="20" rx="5" fill="#10b981" fill-opacity="0.1"/>
    <text x="1335" y="266" text-anchor="middle" fill="#10b981" font-size="9" font-weight="600">0.89 sim</text>

    <rect x="1008" y="286" width="384" height="36" rx="8" fill="#0f1117"/>
    <text x="1024" y="309" fill="#00d4ff" font-size="10" font-family="JetBrains Mono, monospace">services/order.py::validate_order</text>
    <rect x="1300" y="294" width="70" height="20" rx="5" fill="#10b981" fill-opacity="0.1"/>
    <text x="1335" y="308" text-anchor="middle" fill="#10b981" font-size="9" font-weight="600">0.82 sim</text>

    <rect x="1008" y="328" width="384" height="36" rx="8" fill="#0f1117"/>
    <text x="1024" y="351" fill="#00d4ff" font-size="10" font-family="JetBrains Mono, monospace">routes/checkout.py::handle_checkout</text>
    <rect x="1300" y="336" width="70" height="20" rx="5" fill="#f59e0b" fill-opacity="0.1"/>
    <text x="1335" y="350" text-anchor="middle" fill="#f59e0b" font-size="9" font-weight="600">0.71 sim</text>

    <rect x="1008" y="370" width="384" height="16" rx="4" fill="transparent"/>
    <text x="1200" y="382" text-anchor="middle" fill="#3f4050" font-size="9">+ 2 more below threshold (0.5)</text>
  </g>

  <!-- ===== RIGHT PANEL: Recent Guidelines ===== -->
  <g filter="url(#shadow-md)">
    <rect x="990" y="416" width="420" height="200" rx="14" fill="#16171f" stroke="#1e1f2e" stroke-width="1"/>
    <text x="1014" y="448" fill="#f1f5f9" font-size="14" font-weight="700">Recently Learned</text>
    <text x="1350" y="448" text-anchor="end" fill="#6366f1" font-size="10" font-weight="500">View all →</text>

    <!-- Guideline items -->
    <rect x="1008" y="464" width="384" height="44" rx="8" fill="#10b981" fill-opacity="0.03" stroke="#10b981" stroke-opacity="0.1" stroke-width="1"/>
    <circle cx="1024" cy="486" r="4" fill="#10b981"/>
    <text x="1036" y="482" fill="#f1f5f9" font-size="10" font-weight="600">Use service layer for business logic</text>
    <text x="1036" y="497" fill="#64748b" font-size="9">positive • high confidence • 2h ago</text>

    <rect x="1008" y="516" width="384" height="44" rx="8" fill="#ef4444" fill-opacity="0.03" stroke="#ef4444" stroke-opacity="0.1" stroke-width="1"/>
    <circle cx="1024" cy="538" r="4" fill="#ef4444"/>
    <text x="1036" y="534" fill="#f1f5f9" font-size="10" font-weight="600">Avoid print() statements in production</text>
    <text x="1036" y="549" fill="#64748b" font-size="9">negative • high confidence • 3h ago</text>

    <rect x="1008" y="568" width="384" height="44" rx="8" fill="#10b981" fill-opacity="0.03" stroke="#10b981" stroke-opacity="0.1" stroke-width="1"/>
    <circle cx="1024" cy="590" r="4" fill="#10b981"/>
    <text x="1036" y="586" fill="#f1f5f9" font-size="10" font-weight="600">Handle errors with specific exception types</text>
    <text x="1036" y="601" fill="#64748b" font-size="9">positive • medium confidence • 5h ago</text>
  </g>

  <!-- ===== BOTTOM: Activity Feed ===== -->
  <g filter="url(#shadow-sm)">
    <rect x="272" y="636" width="1138" height="240" rx="14" fill="#16171f" stroke="#1e1f2e" stroke-width="1"/>
    <text x="296" y="668" fill="#f1f5f9" font-size="14" font-weight="700">Activity Feed</text>
    <text x="1370" y="668" text-anchor="end" fill="#64748b" font-size="10">Today</text>

    <!-- Activity items -->
    <rect x="290" y="686" width="1100" height="36" rx="8" fill="#0f1117"/>
    <text x="310" y="709" fill="#10b981" font-size="10" font-weight="600">LEARNED</text>
    <text x="380" y="709" fill="#94a3b8" font-size="11">New positive guideline from PR #345 merge: "Use dependency injection for database connections"</text>
    <text x="1370" y="709" text-anchor="end" fill="#3f4050" font-size="9">14 min ago</text>

    <rect x="290" y="730" width="1100" height="36" rx="8" fill="#0f1117"/>
    <text x="310" y="753" fill="#f59e0b" font-size="10" font-weight="600">FLAGGED</text>
    <text x="380" y="753" fill="#94a3b8" font-size="11">PR #347: 2 violations detected in routes/payment.py — broad exception + route-layer logic</text>
    <text x="1370" y="753" text-anchor="end" fill="#3f4050" font-size="9">22 min ago</text>

    <rect x="290" y="774" width="1100" height="36" rx="8" fill="#0f1117"/>
    <text x="310" y="797" fill="#6366f1" font-size="10" font-weight="600">INDEXED</text>
    <text x="380" y="797" fill="#94a3b8" font-size="11">Re-embedded 3 modified functions from PR #346 merge. Attribute lists preserved.</text>
    <text x="1370" y="797" text-anchor="end" fill="#3f4050" font-size="9">1h ago</text>

    <rect x="290" y="818" width="1100" height="36" rx="8" fill="#0f1117"/>
    <text x="310" y="841" fill="#ef4444" font-size="10" font-weight="600">DISMISSED</text>
    <text x="380" y="841" fill="#94a3b8" font-size="11">Developer dismissed "avoid list comprehension nesting" on utils/helpers.py (3rd dismissal — suppressing)</text>
    <text x="1370" y="841" text-anchor="end" fill="#3f4050" font-size="9">2h ago</text>
  </g>
</svg>
